<mxfile host="app.diagrams.net" agent="Mozilla/5.0 (Windows NT 10.0; Win64; x64) AppleWebKit/537.36 (KHTML, like Gecko) Chrome/141.0.0.0 Safari/537.36" version="28.2.7">
  <diagram name="Página-1" id="hUIzcIDoOwiAwLjzrqyc">
    <mxGraphModel dx="1426" dy="872" grid="1" gridSize="10" guides="1" tooltips="1" connect="1" arrows="1" fold="1" page="1" pageScale="1" pageWidth="827" pageHeight="1169" math="0" shadow="0">
      <root>
        <mxCell id="0" />
        <mxCell id="1" parent="0" />
        <mxCell id="pJe_QGIIvriqA83bOJN6-34" style="edgeStyle=orthogonalEdgeStyle;rounded=0;orthogonalLoop=1;jettySize=auto;html=1;exitX=0.5;exitY=1;exitDx=0;exitDy=0;entryX=0.5;entryY=0;entryDx=0;entryDy=0;" edge="1" parent="1" source="pJe_QGIIvriqA83bOJN6-29" target="pJe_QGIIvriqA83bOJN6-30">
          <mxGeometry relative="1" as="geometry" />
        </mxCell>
        <mxCell id="pJe_QGIIvriqA83bOJN6-29" value="Inicio" style="ellipse;whiteSpace=wrap;html=1;" vertex="1" parent="1">
          <mxGeometry x="366" y="20" width="96" height="60" as="geometry" />
        </mxCell>
        <mxCell id="pJe_QGIIvriqA83bOJN6-35" style="edgeStyle=orthogonalEdgeStyle;rounded=0;orthogonalLoop=1;jettySize=auto;html=1;entryX=0.5;entryY=0;entryDx=0;entryDy=0;" edge="1" parent="1" source="pJe_QGIIvriqA83bOJN6-30" target="pJe_QGIIvriqA83bOJN6-31">
          <mxGeometry relative="1" as="geometry" />
        </mxCell>
        <mxCell id="pJe_QGIIvriqA83bOJN6-30" value="nEntradas&lt;div&gt;Dia de la semana&lt;/div&gt;&lt;div&gt;Carnet de estudiante&lt;/div&gt;" style="shape=parallelogram;perimeter=parallelogramPerimeter;whiteSpace=wrap;html=1;fixedSize=1;" vertex="1" parent="1">
          <mxGeometry x="331" y="110" width="166" height="50" as="geometry" />
        </mxCell>
        <mxCell id="pJe_QGIIvriqA83bOJN6-31" value="¿Es miércoles?" style="rhombus;whiteSpace=wrap;html=1;rounded=0;align=center;verticalAlign=middle;" vertex="1" parent="1">
          <mxGeometry x="366" y="200" width="96" height="100" as="geometry" />
        </mxCell>
        <mxCell id="pJe_QGIIvriqA83bOJN6-32" value="Precio = nEntradas * 8&lt;div&gt;Desc1 = Precio * 0,50&lt;/div&gt;&lt;div&gt;PrecioM = Precio - Desc1&lt;/div&gt;" style="rounded=1;whiteSpace=wrap;html=1;" vertex="1" parent="1">
          <mxGeometry x="141" y="350" width="190" height="70" as="geometry" />
        </mxCell>
        <mxCell id="pJe_QGIIvriqA83bOJN6-33" value="&lt;div&gt;PrecioM = nEntradas * 8&lt;/div&gt;&lt;div&gt;Desc1 = 0&lt;/div&gt;" style="rounded=1;whiteSpace=wrap;html=1;" vertex="1" parent="1">
          <mxGeometry x="497" y="358" width="190" height="55" as="geometry" />
        </mxCell>
        <mxCell id="pJe_QGIIvriqA83bOJN6-38" value="Si" style="text;html=1;whiteSpace=wrap;strokeColor=none;fillColor=none;align=center;verticalAlign=middle;rounded=0;" vertex="1" parent="1">
          <mxGeometry x="260" y="260" width="60" height="30" as="geometry" />
        </mxCell>
        <mxCell id="pJe_QGIIvriqA83bOJN6-39" value="No" style="text;html=1;whiteSpace=wrap;strokeColor=none;fillColor=none;align=center;verticalAlign=middle;rounded=0;" vertex="1" parent="1">
          <mxGeometry x="510" y="260" width="60" height="30" as="geometry" />
        </mxCell>
        <mxCell id="pJe_QGIIvriqA83bOJN6-40" value="¿Carnet de estudiante?" style="rhombus;whiteSpace=wrap;html=1;" vertex="1" parent="1">
          <mxGeometry x="364" y="460" width="100" height="100" as="geometry" />
        </mxCell>
        <mxCell id="pJe_QGIIvriqA83bOJN6-48" value="" style="endArrow=classic;html=1;rounded=0;exitX=0.5;exitY=1;exitDx=0;exitDy=0;entryX=0;entryY=0;entryDx=0;entryDy=0;" edge="1" parent="1" source="pJe_QGIIvriqA83bOJN6-32" target="pJe_QGIIvriqA83bOJN6-40">
          <mxGeometry width="50" height="50" relative="1" as="geometry">
            <mxPoint x="240" y="595" as="sourcePoint" />
            <mxPoint x="290" y="545" as="targetPoint" />
          </mxGeometry>
        </mxCell>
        <mxCell id="pJe_QGIIvriqA83bOJN6-49" value="" style="endArrow=classic;html=1;rounded=0;entryX=1;entryY=0;entryDx=0;entryDy=0;exitX=0.5;exitY=1;exitDx=0;exitDy=0;" edge="1" parent="1" source="pJe_QGIIvriqA83bOJN6-33" target="pJe_QGIIvriqA83bOJN6-40">
          <mxGeometry width="50" height="50" relative="1" as="geometry">
            <mxPoint x="600" y="465" as="sourcePoint" />
            <mxPoint x="743" y="460" as="targetPoint" />
          </mxGeometry>
        </mxCell>
        <mxCell id="pJe_QGIIvriqA83bOJN6-51" value="" style="endArrow=classic;html=1;rounded=0;entryX=0.5;entryY=0;entryDx=0;entryDy=0;exitX=0;exitY=1;exitDx=0;exitDy=0;" edge="1" parent="1" source="pJe_QGIIvriqA83bOJN6-31" target="pJe_QGIIvriqA83bOJN6-32">
          <mxGeometry width="50" height="50" relative="1" as="geometry">
            <mxPoint x="312.5" y="470" as="sourcePoint" />
            <mxPoint x="159.5" y="555" as="targetPoint" />
          </mxGeometry>
        </mxCell>
        <mxCell id="pJe_QGIIvriqA83bOJN6-52" value="" style="endArrow=classic;html=1;rounded=0;entryX=0.5;entryY=0;entryDx=0;entryDy=0;exitX=1;exitY=1;exitDx=0;exitDy=0;" edge="1" parent="1" source="pJe_QGIIvriqA83bOJN6-31" target="pJe_QGIIvriqA83bOJN6-33">
          <mxGeometry width="50" height="50" relative="1" as="geometry">
            <mxPoint x="540" y="290" as="sourcePoint" />
            <mxPoint x="410" y="340" as="targetPoint" />
          </mxGeometry>
        </mxCell>
        <mxCell id="pJe_QGIIvriqA83bOJN6-53" value="Desc2 = PrecioM * 0.20&lt;div&gt;PrecioTotal = PrecioM - Desc2&lt;/div&gt;" style="rounded=1;whiteSpace=wrap;html=1;" vertex="1" parent="1">
          <mxGeometry x="128" y="620" width="203" height="60" as="geometry" />
        </mxCell>
        <mxCell id="pJe_QGIIvriqA83bOJN6-54" value="PrecioTotal = PrecioM&lt;div&gt;Desc2 = 0&lt;/div&gt;" style="rounded=1;whiteSpace=wrap;html=1;" vertex="1" parent="1">
          <mxGeometry x="497" y="620" width="203" height="60" as="geometry" />
        </mxCell>
        <mxCell id="pJe_QGIIvriqA83bOJN6-55" value="Si" style="text;html=1;whiteSpace=wrap;strokeColor=none;fillColor=none;align=center;verticalAlign=middle;rounded=0;" vertex="1" parent="1">
          <mxGeometry x="244" y="530" width="60" height="30" as="geometry" />
        </mxCell>
        <mxCell id="pJe_QGIIvriqA83bOJN6-56" value="No" style="text;html=1;whiteSpace=wrap;strokeColor=none;fillColor=none;align=center;verticalAlign=middle;rounded=0;" vertex="1" parent="1">
          <mxGeometry x="494" y="530" width="60" height="30" as="geometry" />
        </mxCell>
        <mxCell id="pJe_QGIIvriqA83bOJN6-57" value="" style="endArrow=classic;html=1;rounded=0;entryX=0.5;entryY=0;entryDx=0;entryDy=0;exitX=0;exitY=1;exitDx=0;exitDy=0;" edge="1" parent="1" source="pJe_QGIIvriqA83bOJN6-40" target="pJe_QGIIvriqA83bOJN6-53">
          <mxGeometry width="50" height="50" relative="1" as="geometry">
            <mxPoint x="374" y="545" as="sourcePoint" />
            <mxPoint x="220" y="620" as="targetPoint" />
          </mxGeometry>
        </mxCell>
        <mxCell id="pJe_QGIIvriqA83bOJN6-58" value="" style="endArrow=classic;html=1;rounded=0;entryX=0.5;entryY=0;entryDx=0;entryDy=0;exitX=1;exitY=1;exitDx=0;exitDy=0;" edge="1" parent="1" source="pJe_QGIIvriqA83bOJN6-40" target="pJe_QGIIvriqA83bOJN6-54">
          <mxGeometry width="50" height="50" relative="1" as="geometry">
            <mxPoint x="422" y="545" as="sourcePoint" />
            <mxPoint x="576" y="635" as="targetPoint" />
          </mxGeometry>
        </mxCell>
        <mxCell id="pJe_QGIIvriqA83bOJN6-59" value="¿PrecioTotal &amp;gt;= 30?" style="rhombus;whiteSpace=wrap;html=1;" vertex="1" parent="1">
          <mxGeometry x="351" y="740" width="126" height="120" as="geometry" />
        </mxCell>
        <mxCell id="pJe_QGIIvriqA83bOJN6-60" value="Combo = &#39;Si&#39;&lt;div&gt;DescTotal = Desc1 + Desc2&lt;/div&gt;&lt;div&gt;DescP = (DescTotal * 100) / PrecioTotal&lt;/div&gt;" style="rounded=1;whiteSpace=wrap;html=1;" vertex="1" parent="1">
          <mxGeometry x="128" y="910" width="222" height="60" as="geometry" />
        </mxCell>
        <mxCell id="pJe_QGIIvriqA83bOJN6-62" value="Si" style="text;html=1;whiteSpace=wrap;strokeColor=none;fillColor=none;align=center;verticalAlign=middle;rounded=0;" vertex="1" parent="1">
          <mxGeometry x="244" y="820" width="60" height="30" as="geometry" />
        </mxCell>
        <mxCell id="pJe_QGIIvriqA83bOJN6-63" value="No" style="text;html=1;whiteSpace=wrap;strokeColor=none;fillColor=none;align=center;verticalAlign=middle;rounded=0;" vertex="1" parent="1">
          <mxGeometry x="494" y="820" width="60" height="30" as="geometry" />
        </mxCell>
        <mxCell id="pJe_QGIIvriqA83bOJN6-64" value="" style="endArrow=classic;html=1;rounded=0;entryX=0.5;entryY=0;entryDx=0;entryDy=0;exitX=0;exitY=1;exitDx=0;exitDy=0;" edge="1" parent="1" source="pJe_QGIIvriqA83bOJN6-59" target="pJe_QGIIvriqA83bOJN6-60">
          <mxGeometry width="50" height="50" relative="1" as="geometry">
            <mxPoint x="374" y="835" as="sourcePoint" />
            <mxPoint x="220" y="910" as="targetPoint" />
          </mxGeometry>
        </mxCell>
        <mxCell id="pJe_QGIIvriqA83bOJN6-65" value="" style="endArrow=classic;html=1;rounded=0;exitX=1;exitY=1;exitDx=0;exitDy=0;entryX=0.5;entryY=0;entryDx=0;entryDy=0;" edge="1" parent="1" source="pJe_QGIIvriqA83bOJN6-59" target="pJe_QGIIvriqA83bOJN6-76">
          <mxGeometry width="50" height="50" relative="1" as="geometry">
            <mxPoint x="422" y="835" as="sourcePoint" />
            <mxPoint x="602" y="840" as="targetPoint" />
          </mxGeometry>
        </mxCell>
        <mxCell id="pJe_QGIIvriqA83bOJN6-68" value="" style="endArrow=classic;html=1;rounded=0;exitX=0.5;exitY=1;exitDx=0;exitDy=0;entryX=0;entryY=0;entryDx=0;entryDy=0;" edge="1" parent="1" source="pJe_QGIIvriqA83bOJN6-53" target="pJe_QGIIvriqA83bOJN6-59">
          <mxGeometry width="50" height="50" relative="1" as="geometry">
            <mxPoint x="390" y="720" as="sourcePoint" />
            <mxPoint x="440" y="670" as="targetPoint" />
          </mxGeometry>
        </mxCell>
        <mxCell id="pJe_QGIIvriqA83bOJN6-69" value="" style="endArrow=classic;html=1;rounded=0;exitX=0.5;exitY=1;exitDx=0;exitDy=0;entryX=1;entryY=0;entryDx=0;entryDy=0;" edge="1" parent="1" source="pJe_QGIIvriqA83bOJN6-54" target="pJe_QGIIvriqA83bOJN6-59">
          <mxGeometry width="50" height="50" relative="1" as="geometry">
            <mxPoint x="590" y="750" as="sourcePoint" />
            <mxPoint x="749" y="845" as="targetPoint" />
          </mxGeometry>
        </mxCell>
        <mxCell id="pJe_QGIIvriqA83bOJN6-76" value="Combo = &#39;No&#39;&lt;div&gt;DescTotal = Desc1 + Desc2&lt;/div&gt;&lt;div&gt;DescP = (DescTotal * 100) / PrecioTotal&lt;/div&gt;" style="rounded=1;whiteSpace=wrap;html=1;" vertex="1" parent="1">
          <mxGeometry x="481" y="910" width="222" height="60" as="geometry" />
        </mxCell>
        <mxCell id="pJe_QGIIvriqA83bOJN6-77" value="&lt;div&gt;Mostrar:&lt;/div&gt;- Total a pagar: (PrecioTotal)&lt;div&gt;- Descuento Aplicado: (DescTotal)(DescP)&lt;/div&gt;&lt;div&gt;- Combo gratis: (Combo)&lt;/div&gt;" style="shape=parallelogram;perimeter=parallelogramPerimeter;whiteSpace=wrap;html=1;fixedSize=1;" vertex="1" parent="1">
          <mxGeometry x="271" y="1080" width="286" height="70" as="geometry" />
        </mxCell>
        <mxCell id="pJe_QGIIvriqA83bOJN6-78" value="" style="endArrow=classic;html=1;rounded=0;exitX=0.5;exitY=1;exitDx=0;exitDy=0;entryX=0.5;entryY=0;entryDx=0;entryDy=0;" edge="1" parent="1" source="pJe_QGIIvriqA83bOJN6-60" target="pJe_QGIIvriqA83bOJN6-77">
          <mxGeometry width="50" height="50" relative="1" as="geometry">
            <mxPoint x="390" y="930" as="sourcePoint" />
            <mxPoint x="440" y="880" as="targetPoint" />
          </mxGeometry>
        </mxCell>
        <mxCell id="pJe_QGIIvriqA83bOJN6-79" value="" style="endArrow=classic;html=1;rounded=0;exitX=0.491;exitY=1;exitDx=0;exitDy=0;exitPerimeter=0;entryX=0.5;entryY=0;entryDx=0;entryDy=0;" edge="1" parent="1" source="pJe_QGIIvriqA83bOJN6-76" target="pJe_QGIIvriqA83bOJN6-77">
          <mxGeometry width="50" height="50" relative="1" as="geometry">
            <mxPoint x="390" y="930" as="sourcePoint" />
            <mxPoint x="440" y="880" as="targetPoint" />
          </mxGeometry>
        </mxCell>
        <mxCell id="pJe_QGIIvriqA83bOJN6-80" value="Fin" style="ellipse;whiteSpace=wrap;html=1;" vertex="1" parent="1">
          <mxGeometry x="354" y="1220" width="120" height="60" as="geometry" />
        </mxCell>
        <mxCell id="pJe_QGIIvriqA83bOJN6-82" value="" style="endArrow=classic;html=1;rounded=0;entryX=0.5;entryY=0;entryDx=0;entryDy=0;exitX=0.5;exitY=1;exitDx=0;exitDy=0;" edge="1" parent="1" source="pJe_QGIIvriqA83bOJN6-77" target="pJe_QGIIvriqA83bOJN6-80">
          <mxGeometry width="50" height="50" relative="1" as="geometry">
            <mxPoint x="390" y="1030" as="sourcePoint" />
            <mxPoint x="440" y="980" as="targetPoint" />
          </mxGeometry>
        </mxCell>
      </root>
    </mxGraphModel>
  </diagram>
</mxfile>
